<svg xmlns="http://www.w3.org/2000/svg" xmlns:xlink="http://www.w3.org/1999/xlink" width="500" zoomAndPan="magnify" viewBox="0 0 375 374.999991" height="500" preserveAspectRatio="xMidYMid meet" version="1.0"><defs><g/></defs><rect x="-37.5" width="450" fill="#ffffff" y="-37.499999" height="449.999989" fill-opacity="1"/><rect x="-37.5" width="450" fill="#ffffff" y="-37.499999" height="449.999989" fill-opacity="1"/><rect x="-37.5" width="450" fill="#ffffff" y="-37.499999" height="449.999989" fill-opacity="1"/><g fill="#f5f5f3" fill-opacity="1"><g transform="translate(38.13373, 184.740866)"><g><path d="M 0.5 -0.0195312 L 4.597656 -0.0195312 C 4.597656 -0.0195312 3.777344 -0.417969 3.777344 -2.800781 L 3.777344 -26.035156 C 3.777344 -28.414062 4.597656 -28.671875 4.597656 -28.671875 L 0.5 -28.671875 C 0.5 -28.671875 1.339844 -28.394531 1.339844 -26.011719 L 1.339844 -2.800781 C 1.339844 -0.417969 0.5 -0.0195312 0.5 -0.0195312 Z M 0.5 -0.0195312 "/></g></g></g><g fill="#f5f5f3" fill-opacity="1"><g transform="translate(44.231564, 184.740866)"><g><path d="M 16.636719 -5.660156 C 16.636719 -4.039062 15.636719 -0.519531 10.078125 -0.519531 C 4.097656 -0.519531 2.539062 -4.679688 2.199219 -5.617188 L 0.5 -3.558594 C 1.121094 -2.738281 3.058594 0 10.039062 0 C 17.035156 0 19.816406 -2.558594 19.816406 -6.078125 C 19.816406 -13.496094 4.140625 -10.058594 4.140625 -16.015625 C 4.140625 -19.175781 6.917969 -20.816406 9.675781 -20.816406 C 16.976562 -20.816406 17.074219 -16.316406 17.074219 -16.316406 L 17.855469 -19.59375 C 17.855469 -19.59375 15.015625 -21.375 9.976562 -21.375 C 1.941406 -21.375 1.597656 -16.835938 1.597656 -15.996094 C 1.597656 -7.839844 16.636719 -11.597656 16.636719 -5.660156 Z M 16.636719 -5.660156 "/></g></g></g><g fill="#f5f5f3" fill-opacity="1"><g transform="translate(65.54339, 184.740866)"><g><path d="M 1.339844 -26.535156 L 1.339844 -2.660156 C 1.339844 -0.28125 0.5 0 0.5 0 L 4.597656 0 C 4.597656 0 3.777344 -0.261719 3.777344 -2.640625 L 3.757812 -30.59375 L 0.5 -29.332031 C 0.5 -29.332031 1.339844 -28.914062 1.339844 -26.535156 Z M 1.339844 -26.535156 "/></g></g></g><g fill="#f5f5f3" fill-opacity="1"><g transform="translate(71.641222, 184.740866)"><g><path d="M 16.855469 -8.898438 C 16.855469 -4.878906 14.175781 -1.140625 9.359375 -1.140625 C 5.5 -1.140625 3.039062 -3.078125 3.039062 -6.9375 C 3.039062 -14.617188 15.894531 -13.117188 16.734375 -15.417969 C 15.035156 -13.078125 0.5 -15.816406 0.5 -6.179688 C 0.5 -4 2.28125 0 8.835938 0 C 13.335938 0 15.675781 -2.660156 16.855469 -5.339844 L 16.855469 -2.660156 C 16.855469 -0.238281 18.394531 0 20.113281 0 C 20.113281 0 19.296875 -0.261719 19.296875 -2.640625 L 19.296875 -14.335938 C 19.316406 -17.996094 18.277344 -21.414062 11.558594 -21.414062 C 7.898438 -21.414062 4.21875 -20.136719 2.398438 -16.316406 L 4.539062 -14.894531 C 5.359375 -18.414062 8.058594 -20.753906 11.539062 -20.753906 C 16.296875 -20.753906 16.855469 -17.554688 16.855469 -14.316406 Z M 16.855469 -8.898438 "/></g></g></g><g fill="#f5f5f3" fill-opacity="1"><g transform="translate(93.252931, 184.740866)"><g><path d="M 0.5 -20.136719 C 0.5 -20.136719 1.339844 -19.734375 1.339844 -17.335938 L 1.339844 -2.660156 C 1.339844 -0.28125 0.5 0 0.5 0 C 2.660156 0 3.777344 -0.417969 3.777344 -2.359375 L 3.777344 -21.394531 Z M 14.597656 0 L 18.695312 0 C 18.695312 0 17.855469 -0.261719 17.855469 -2.640625 L 17.855469 -15.835938 C 17.855469 -22.355469 5.21875 -24.355469 3.917969 -15.417969 C 5.898438 -22.394531 15.417969 -22.335938 15.417969 -15.375 C 15.417969 -2.660156 15.417969 -2.660156 15.417969 -2.660156 C 15.417969 -0.28125 14.597656 0 14.597656 0 Z M 14.597656 0 "/></g></g></g><g fill="#f5f5f3" fill-opacity="1"><g transform="translate(113.445206, 184.740866)"><g><path d="M 17.574219 -8.496094 C 17.574219 -4.660156 15.355469 -0.839844 10.417969 -0.839844 C 7.019531 -0.839844 3.039062 -3.5 3.039062 -10.699219 C 3.039062 -24.414062 15.917969 -22.554688 17.414062 -15.417969 C 17.015625 -24.914062 0.5 -24.613281 0.5 -10.757812 C 0.5 -4.21875 4.617188 0 10.617188 0 C 13.714844 0 16.214844 -1.320312 17.554688 -3.359375 L 17.554688 -2.359375 C 17.554688 -0.417969 18.675781 0 20.835938 0 C 20.835938 0 19.996094 -0.28125 19.996094 -2.660156 L 19.996094 -26.535156 C 19.996094 -28.914062 20.835938 -29.332031 20.835938 -29.332031 L 17.574219 -30.59375 Z M 17.574219 -8.496094 "/></g></g></g><g fill="#f5f5f3" fill-opacity="1"><g transform="translate(135.776627, 184.740866)"><g/></g></g><g fill="#f5f5f3" fill-opacity="1"><g transform="translate(146.772533, 184.740866)"><g><path d="M 23.675781 -4.4375 L 22.054688 -5.519531 C 20.214844 -2.359375 18.015625 -0.941406 13.117188 -0.941406 C 7.558594 -0.941406 3.039062 -5.140625 3.039062 -14.375 C 3.039062 -23.59375 8.898438 -27.894531 13.117188 -27.894531 C 18.234375 -27.894531 20.296875 -26.554688 22.894531 -22.3125 L 24.253906 -25.992188 C 22.015625 -25.394531 20.914062 -28.671875 13.957031 -28.671875 C 6.078125 -28.671875 0.5 -23.414062 0.5 -14.316406 C 0.5 -5.238281 6.160156 -0.0195312 13.117188 -0.0195312 C 17.753906 -0.0195312 21.355469 -1.378906 23.675781 -4.4375 Z M 23.675781 -4.4375 "/></g></g></g><g fill="#f5f5f3" fill-opacity="1"><g transform="translate(172.522607, 184.740866)"><g><path d="M 10.777344 -21.394531 C 5.097656 -21.394531 0.5 -16.574219 0.5 -10.675781 C 0.5 -4.777344 5.097656 0.0195312 10.777344 0.0195312 C 16.457031 0.0195312 21.054688 -4.777344 21.054688 -10.675781 C 21.054688 -16.574219 16.457031 -21.394531 10.777344 -21.394531 Z M 10.777344 -0.898438 C 6.5 -0.898438 3.019531 -5.417969 3.019531 -10.777344 C 3.019531 -16.136719 6.5 -20.476562 10.777344 -20.476562 C 15.054688 -20.476562 18.535156 -16.136719 18.535156 -10.777344 C 18.535156 -5.417969 15.054688 -0.898438 10.777344 -0.898438 Z M 10.777344 -0.898438 "/></g></g></g><g fill="#f5f5f3" fill-opacity="1"><g transform="translate(195.073944, 184.740866)"><g><path d="M 3.777344 -21.394531 L 0.519531 -20.136719 C 0.519531 -20.136719 1.339844 -19.734375 1.339844 -17.335938 L 1.339844 -2.660156 C 1.339844 -0.28125 0.5 0 0.5 0 C 2.660156 0 3.777344 -0.417969 3.777344 -2.359375 Z M 23.972656 0 L 28.074219 0 C 28.074219 0 27.253906 -0.261719 27.253906 -2.640625 L 27.234375 -16.136719 C 27.234375 -22.375 16.015625 -24.113281 15.65625 -15.417969 C 16.914062 -21.613281 24.8125 -22.15625 24.8125 -16.335938 C 24.8125 -3.597656 24.8125 -2.660156 24.8125 -2.660156 C 24.8125 -0.28125 23.972656 0 23.972656 0 Z M 12.238281 0 L 16.335938 0 C 16.335938 0 15.496094 -0.261719 15.496094 -2.640625 L 15.496094 -16.136719 C 15.496094 -22.375 4.257812 -24.113281 3.917969 -15.417969 C 5.179688 -21.613281 13.078125 -22.15625 13.078125 -16.335938 C 13.078125 -3.597656 13.078125 -2.660156 13.078125 -2.660156 C 13.078125 -0.28125 12.238281 0 12.238281 0 Z M 12.238281 0 "/></g></g></g><g fill="#f5f5f3" fill-opacity="1"><g transform="translate(224.642511, 184.740866)"><g><path d="M 3.777344 -21.394531 L 0.519531 -20.136719 C 0.519531 -20.136719 1.339844 -19.734375 1.339844 -17.335938 L 1.339844 -2.660156 C 1.339844 -0.28125 0.5 0 0.5 0 C 2.660156 0 3.777344 -0.417969 3.777344 -2.359375 Z M 23.972656 0 L 28.074219 0 C 28.074219 0 27.253906 -0.261719 27.253906 -2.640625 L 27.234375 -16.136719 C 27.234375 -22.375 16.015625 -24.113281 15.65625 -15.417969 C 16.914062 -21.613281 24.8125 -22.15625 24.8125 -16.335938 C 24.8125 -3.597656 24.8125 -2.660156 24.8125 -2.660156 C 24.8125 -0.28125 23.972656 0 23.972656 0 Z M 12.238281 0 L 16.335938 0 C 16.335938 0 15.496094 -0.261719 15.496094 -2.640625 L 15.496094 -16.136719 C 15.496094 -22.375 4.257812 -24.113281 3.917969 -15.417969 C 5.179688 -21.613281 13.078125 -22.15625 13.078125 -16.335938 C 13.078125 -3.597656 13.078125 -2.660156 13.078125 -2.660156 C 13.078125 -0.28125 12.238281 0 12.238281 0 Z M 12.238281 0 "/></g></g></g><g fill="#f5f5f3" fill-opacity="1"><g transform="translate(254.211079, 184.740866)"><g><path d="M 3.019531 -11.175781 L 3.019531 -11.4375 L 20.753906 -11.4375 C 20.753906 -18.636719 16.636719 -21.394531 10.976562 -21.394531 C 5.296875 -21.394531 0.5 -16.976562 0.5 -11.078125 C 0.5 -5.179688 4.878906 0.0195312 11.738281 0.0195312 C 16.214844 0.0195312 19.773438 -2.980469 20.113281 -6.160156 C 18.734375 0.320312 3.160156 1.679688 3.019531 -11.175781 Z M 10.976562 -20.476562 C 16.195312 -20.476562 18.476562 -16.835938 18.476562 -12.058594 L 3.039062 -12.058594 C 3.378906 -16.957031 6.917969 -20.476562 10.976562 -20.476562 Z M 10.976562 -20.476562 "/></g></g></g><g fill="#f5f5f3" fill-opacity="1"><g transform="translate(276.462535, 184.740866)"><g><path d="M 3.878906 -15.417969 C 5.039062 -21.132812 12.796875 -22.214844 14.375 -16.515625 L 16.535156 -17.035156 C 14.996094 -23.054688 4.199219 -23.113281 3.878906 -15.417969 Z M 0.5 0 L 4.597656 0 C 4.597656 0 3.777344 -0.261719 3.777344 -2.640625 L 3.757812 -21.414062 L 0.5 -20.15625 C 0.5 -20.15625 1.339844 -19.753906 1.339844 -17.375 L 1.339844 -2.660156 C 1.339844 -0.28125 0.5 0 0.5 0 Z M 0.5 0 "/></g></g></g><g fill="#f5f5f3" fill-opacity="1"><g transform="translate(294.495653, 184.740866)"><g><path d="M 18.59375 -5.617188 C 16.695312 0.941406 3.019531 1.480469 3.019531 -10.777344 C 3.019531 -16.136719 6.5 -20.476562 10.777344 -20.476562 C 13.738281 -20.476562 16.554688 -18.976562 17.617188 -15.375 L 19.214844 -17.4375 C 17.914062 -19.695312 14.417969 -21.375 10.777344 -21.375 C 5.117188 -21.375 0.5 -16.574219 0.5 -10.675781 C 0.5 -3.960938 5.117188 0.0195312 10.777344 0.0195312 C 13.777344 0.0195312 17.375 -1.28125 18.59375 -5.617188 Z M 18.59375 -5.617188 "/></g></g></g><g fill="#f5f5f3" fill-opacity="1"><g transform="translate(315.207718, 184.740866)"><g><path d="M 3.019531 -11.175781 L 3.019531 -11.4375 L 20.753906 -11.4375 C 20.753906 -18.636719 16.636719 -21.394531 10.976562 -21.394531 C 5.296875 -21.394531 0.5 -16.976562 0.5 -11.078125 C 0.5 -5.179688 4.878906 0.0195312 11.738281 0.0195312 C 16.214844 0.0195312 19.773438 -2.980469 20.113281 -6.160156 C 18.734375 0.320312 3.160156 1.679688 3.019531 -11.175781 Z M 10.976562 -20.476562 C 16.195312 -20.476562 18.476562 -16.835938 18.476562 -12.058594 L 3.039062 -12.058594 C 3.378906 -16.957031 6.917969 -20.476562 10.976562 -20.476562 Z M 10.976562 -20.476562 "/></g></g></g></svg>