<svg xmlns="http://www.w3.org/2000/svg" xmlns:xlink="http://www.w3.org/1999/xlink" width="144" zoomAndPan="magnify" viewBox="0 0 108 30.000001" height="40" preserveAspectRatio="xMidYMid meet" version="1.0"><defs><g/></defs><g fill="#f5f5f3" fill-opacity="1"><g transform="translate(9.268375, 17.99754)"><g><path d="M 0.148438 -0.0078125 L 1.378906 -0.0078125 C 1.378906 -0.0078125 1.132812 -0.125 1.132812 -0.839844 L 1.132812 -7.796875 C 1.132812 -8.507812 1.378906 -8.585938 1.378906 -8.585938 L 0.148438 -8.585938 C 0.148438 -8.585938 0.402344 -8.503906 0.402344 -7.789062 L 0.402344 -0.839844 C 0.402344 -0.125 0.148438 -0.0078125 0.148438 -0.0078125 Z M 0.148438 -0.0078125 "/></g></g></g><g fill="#f5f5f3" fill-opacity="1"><g transform="translate(11.09453, 17.99754)"><g><path d="M 4.980469 -1.695312 C 4.980469 -1.210938 4.683594 -0.15625 3.019531 -0.15625 C 1.226562 -0.15625 0.761719 -1.402344 0.660156 -1.683594 L 0.148438 -1.066406 C 0.335938 -0.820312 0.917969 0 3.007812 0 C 5.101562 0 5.933594 -0.765625 5.933594 -1.820312 C 5.933594 -4.042969 1.238281 -3.011719 1.238281 -4.796875 C 1.238281 -5.742188 2.070312 -6.234375 2.898438 -6.234375 C 5.082031 -6.234375 5.113281 -4.886719 5.113281 -4.886719 L 5.347656 -5.867188 C 5.347656 -5.867188 4.496094 -6.402344 2.988281 -6.402344 C 0.582031 -6.402344 0.480469 -5.042969 0.480469 -4.789062 C 0.480469 -2.347656 4.980469 -3.472656 4.980469 -1.695312 Z M 4.980469 -1.695312 "/></g></g></g><g fill="#f5f5f3" fill-opacity="1"><g transform="translate(17.476912, 17.99754)"><g><path d="M 0.402344 -7.945312 L 0.402344 -0.796875 C 0.402344 -0.0820312 0.148438 0 0.148438 0 L 1.378906 0 C 1.378906 0 1.132812 -0.078125 1.132812 -0.789062 L 1.125 -9.160156 L 0.148438 -8.785156 C 0.148438 -8.785156 0.402344 -8.660156 0.402344 -7.945312 Z M 0.402344 -7.945312 "/></g></g></g><g fill="#f5f5f3" fill-opacity="1"><g transform="translate(19.303067, 17.99754)"><g><path d="M 5.046875 -2.664062 C 5.046875 -1.460938 4.246094 -0.339844 2.800781 -0.339844 C 1.648438 -0.339844 0.910156 -0.921875 0.910156 -2.078125 C 0.910156 -4.378906 4.761719 -3.929688 5.011719 -4.617188 C 4.503906 -3.917969 0.148438 -4.738281 0.148438 -1.851562 C 0.148438 -1.199219 0.683594 0 2.648438 0 C 3.992188 0 4.695312 -0.796875 5.046875 -1.597656 L 5.046875 -0.796875 C 5.046875 -0.0703125 5.507812 0 6.023438 0 C 6.023438 0 5.777344 -0.078125 5.777344 -0.789062 L 5.777344 -4.292969 C 5.785156 -5.390625 5.472656 -6.414062 3.460938 -6.414062 C 2.367188 -6.414062 1.261719 -6.03125 0.71875 -4.886719 L 1.359375 -4.460938 C 1.605469 -5.515625 2.414062 -6.214844 3.457031 -6.214844 C 4.878906 -6.214844 5.046875 -5.257812 5.046875 -4.289062 Z M 5.046875 -2.664062 "/></g></g></g><g fill="#f5f5f3" fill-opacity="1"><g transform="translate(25.775256, 17.99754)"><g><path d="M 0.148438 -6.03125 C 0.148438 -6.03125 0.402344 -5.910156 0.402344 -5.191406 L 0.402344 -0.796875 C 0.402344 -0.0820312 0.148438 0 0.148438 0 C 0.796875 0 1.132812 -0.125 1.132812 -0.707031 L 1.132812 -6.40625 Z M 4.371094 0 L 5.597656 0 C 5.597656 0 5.347656 -0.078125 5.347656 -0.789062 L 5.347656 -4.742188 C 5.347656 -6.695312 1.5625 -7.292969 1.171875 -4.617188 C 1.765625 -6.707031 4.617188 -6.6875 4.617188 -4.605469 C 4.617188 -0.796875 4.617188 -0.796875 4.617188 -0.796875 C 4.617188 -0.0820312 4.371094 0 4.371094 0 Z M 4.371094 0 "/></g></g></g><g fill="#f5f5f3" fill-opacity="1"><g transform="translate(31.822359, 17.99754)"><g><path d="M 5.261719 -2.542969 C 5.261719 -1.394531 4.597656 -0.25 3.121094 -0.25 C 2.101562 -0.25 0.910156 -1.046875 0.910156 -3.203125 C 0.910156 -7.3125 4.765625 -6.753906 5.214844 -4.617188 C 5.097656 -7.460938 0.148438 -7.371094 0.148438 -3.222656 C 0.148438 -1.261719 1.382812 0 3.179688 0 C 4.109375 0 4.855469 -0.394531 5.257812 -1.007812 L 5.257812 -0.707031 C 5.257812 -0.125 5.59375 0 6.238281 0 C 6.238281 0 5.988281 -0.0820312 5.988281 -0.796875 L 5.988281 -7.945312 C 5.988281 -8.660156 6.238281 -8.785156 6.238281 -8.785156 L 5.261719 -9.160156 Z M 5.261719 -2.542969 "/></g></g></g><g fill="#f5f5f3" fill-opacity="1"><g transform="translate(38.510085, 17.99754)"><g/></g></g><g fill="#f5f5f3" fill-opacity="1"><g transform="translate(41.803096, 17.99754)"><g><path d="M 7.089844 -1.328125 L 6.605469 -1.652344 C 6.054688 -0.707031 5.394531 -0.28125 3.929688 -0.28125 C 2.261719 -0.28125 0.910156 -1.539062 0.910156 -4.304688 C 0.910156 -7.066406 2.664062 -8.351562 3.929688 -8.351562 C 5.460938 -8.351562 6.078125 -7.953125 6.855469 -6.683594 L 7.261719 -7.785156 C 6.59375 -7.605469 6.261719 -8.585938 4.179688 -8.585938 C 1.820312 -8.585938 0.148438 -7.011719 0.148438 -4.289062 C 0.148438 -1.570312 1.84375 -0.0078125 3.929688 -0.0078125 C 5.316406 -0.0078125 6.394531 -0.414062 7.089844 -1.328125 Z M 7.089844 -1.328125 "/></g></g></g><g fill="#f5f5f3" fill-opacity="1"><g transform="translate(49.514627, 17.99754)"><g><path d="M 3.226562 -6.40625 C 1.527344 -6.40625 0.148438 -4.964844 0.148438 -3.199219 C 0.148438 -1.429688 1.527344 0.0078125 3.226562 0.0078125 C 4.929688 0.0078125 6.304688 -1.429688 6.304688 -3.199219 C 6.304688 -4.964844 4.929688 -6.40625 3.226562 -6.40625 Z M 3.226562 -0.269531 C 1.945312 -0.269531 0.902344 -1.621094 0.902344 -3.226562 C 0.902344 -4.832031 1.945312 -6.132812 3.226562 -6.132812 C 4.507812 -6.132812 5.550781 -4.832031 5.550781 -3.226562 C 5.550781 -1.621094 4.507812 -0.269531 3.226562 -0.269531 Z M 3.226562 -0.269531 "/></g></g></g><g fill="#f5f5f3" fill-opacity="1"><g transform="translate(56.268212, 17.99754)"><g><path d="M 1.132812 -6.40625 L 0.15625 -6.03125 C 0.15625 -6.03125 0.402344 -5.910156 0.402344 -5.191406 L 0.402344 -0.796875 C 0.402344 -0.0820312 0.148438 0 0.148438 0 C 0.796875 0 1.132812 -0.125 1.132812 -0.707031 Z M 7.179688 0 L 8.40625 0 C 8.40625 0 8.160156 -0.078125 8.160156 -0.789062 L 8.15625 -4.832031 C 8.15625 -6.699219 4.796875 -7.222656 4.6875 -4.617188 C 5.066406 -6.472656 7.429688 -6.632812 7.429688 -4.890625 C 7.429688 -1.078125 7.429688 -0.796875 7.429688 -0.796875 C 7.429688 -0.0820312 7.179688 0 7.179688 0 Z M 3.664062 0 L 4.890625 0 C 4.890625 0 4.640625 -0.078125 4.640625 -0.789062 L 4.640625 -4.832031 C 4.640625 -6.699219 1.277344 -7.222656 1.171875 -4.617188 C 1.550781 -6.472656 3.917969 -6.632812 3.917969 -4.890625 C 3.917969 -1.078125 3.917969 -0.796875 3.917969 -0.796875 C 3.917969 -0.0820312 3.664062 0 3.664062 0 Z M 3.664062 0 "/></g></g></g><g fill="#f5f5f3" fill-opacity="1"><g transform="translate(65.12329, 17.99754)"><g><path d="M 1.132812 -6.40625 L 0.15625 -6.03125 C 0.15625 -6.03125 0.402344 -5.910156 0.402344 -5.191406 L 0.402344 -0.796875 C 0.402344 -0.0820312 0.148438 0 0.148438 0 C 0.796875 0 1.132812 -0.125 1.132812 -0.707031 Z M 7.179688 0 L 8.40625 0 C 8.40625 0 8.160156 -0.078125 8.160156 -0.789062 L 8.15625 -4.832031 C 8.15625 -6.699219 4.796875 -7.222656 4.6875 -4.617188 C 5.066406 -6.472656 7.429688 -6.632812 7.429688 -4.890625 C 7.429688 -1.078125 7.429688 -0.796875 7.429688 -0.796875 C 7.429688 -0.0820312 7.179688 0 7.179688 0 Z M 3.664062 0 L 4.890625 0 C 4.890625 0 4.640625 -0.078125 4.640625 -0.789062 L 4.640625 -4.832031 C 4.640625 -6.699219 1.277344 -7.222656 1.171875 -4.617188 C 1.550781 -6.472656 3.917969 -6.632812 3.917969 -4.890625 C 3.917969 -1.078125 3.917969 -0.796875 3.917969 -0.796875 C 3.917969 -0.0820312 3.664062 0 3.664062 0 Z M 3.664062 0 "/></g></g></g><g fill="#f5f5f3" fill-opacity="1"><g transform="translate(73.978368, 17.99754)"><g><path d="M 0.902344 -3.347656 L 0.902344 -3.425781 L 6.214844 -3.425781 C 6.214844 -5.582031 4.980469 -6.40625 3.289062 -6.40625 C 1.585938 -6.40625 0.148438 -5.082031 0.148438 -3.316406 C 0.148438 -1.550781 1.460938 0.0078125 3.515625 0.0078125 C 4.855469 0.0078125 5.921875 -0.890625 6.023438 -1.84375 C 5.609375 0.0976562 0.945312 0.503906 0.902344 -3.347656 Z M 3.289062 -6.132812 C 4.851562 -6.132812 5.53125 -5.042969 5.53125 -3.609375 L 0.910156 -3.609375 C 1.011719 -5.078125 2.070312 -6.132812 3.289062 -6.132812 Z M 3.289062 -6.132812 "/></g></g></g><g fill="#f5f5f3" fill-opacity="1"><g transform="translate(80.642147, 17.99754)"><g><path d="M 1.160156 -4.617188 C 1.507812 -6.328125 3.832031 -6.652344 4.304688 -4.945312 L 4.953125 -5.101562 C 4.492188 -6.902344 1.257812 -6.921875 1.160156 -4.617188 Z M 0.148438 0 L 1.378906 0 C 1.378906 0 1.132812 -0.078125 1.132812 -0.789062 L 1.125 -6.414062 L 0.148438 -6.035156 C 0.148438 -6.035156 0.402344 -5.917969 0.402344 -5.203125 L 0.402344 -0.796875 C 0.402344 -0.0820312 0.148438 0 0.148438 0 Z M 0.148438 0 "/></g></g></g><g fill="#f5f5f3" fill-opacity="1"><g transform="translate(86.042634, 17.99754)"><g><path d="M 5.570312 -1.683594 C 5 0.28125 0.902344 0.441406 0.902344 -3.226562 C 0.902344 -4.832031 1.945312 -6.132812 3.226562 -6.132812 C 4.113281 -6.132812 4.957031 -5.683594 5.277344 -4.605469 L 5.753906 -5.222656 C 5.367188 -5.898438 4.316406 -6.402344 3.226562 -6.402344 C 1.53125 -6.402344 0.148438 -4.964844 0.148438 -3.199219 C 0.148438 -1.1875 1.53125 0.0078125 3.226562 0.0078125 C 4.125 0.0078125 5.203125 -0.382812 5.570312 -1.683594 Z M 5.570312 -1.683594 "/></g></g></g><g fill="#f5f5f3" fill-opacity="1"><g transform="translate(92.245402, 17.99754)"><g><path d="M 0.902344 -3.347656 L 0.902344 -3.425781 L 6.214844 -3.425781 C 6.214844 -5.582031 4.980469 -6.40625 3.289062 -6.40625 C 1.585938 -6.40625 0.148438 -5.082031 0.148438 -3.316406 C 0.148438 -1.550781 1.460938 0.0078125 3.515625 0.0078125 C 4.855469 0.0078125 5.921875 -0.890625 6.023438 -1.84375 C 5.609375 0.0976562 0.945312 0.503906 0.902344 -3.347656 Z M 3.289062 -6.132812 C 4.851562 -6.132812 5.53125 -5.042969 5.53125 -3.609375 L 0.910156 -3.609375 C 1.011719 -5.078125 2.070312 -6.132812 3.289062 -6.132812 Z M 3.289062 -6.132812 "/></g></g></g></svg>