<svg xmlns="http://www.w3.org/2000/svg" xmlns:xlink="http://www.w3.org/1999/xlink" width="200" zoomAndPan="magnify" viewBox="0 0 150 74.999997" height="100" preserveAspectRatio="xMidYMid meet" version="1.0"><defs><g/></defs><g fill="#f5f5f3" fill-opacity="1"><g transform="translate(10.80184, 42.496463)"><g><path d="M 0.214844 -0.0078125 L 1.976562 -0.0078125 C 1.976562 -0.0078125 1.625 -0.179688 1.625 -1.203125 L 1.625 -11.1875 C 1.625 -12.210938 1.976562 -12.324219 1.976562 -12.324219 L 0.214844 -12.324219 C 0.214844 -12.324219 0.574219 -12.203125 0.574219 -11.179688 L 0.574219 -1.203125 C 0.574219 -0.179688 0.214844 -0.0078125 0.214844 -0.0078125 Z M 0.214844 -0.0078125 "/></g></g></g><g fill="#f5f5f3" fill-opacity="1"><g transform="translate(13.422711, 42.496463)"><g><path d="M 7.148438 -2.433594 C 7.148438 -1.734375 6.71875 -0.222656 4.332031 -0.222656 C 1.761719 -0.222656 1.089844 -2.011719 0.945312 -2.414062 L 0.214844 -1.53125 C 0.480469 -1.175781 1.316406 0 4.3125 0 C 7.320312 0 8.515625 -1.101562 8.515625 -2.613281 C 8.515625 -5.800781 1.777344 -4.324219 1.777344 -6.882812 C 1.777344 -8.242188 2.972656 -8.945312 4.160156 -8.945312 C 7.296875 -8.945312 7.339844 -7.011719 7.339844 -7.011719 L 7.675781 -8.421875 C 7.675781 -8.421875 6.453125 -9.1875 4.289062 -9.1875 C 0.832031 -9.1875 0.6875 -7.234375 0.6875 -6.875 C 0.6875 -3.367188 7.148438 -4.984375 7.148438 -2.433594 Z M 7.148438 -2.433594 "/></g></g></g><g fill="#f5f5f3" fill-opacity="1"><g transform="translate(22.582611, 42.496463)"><g><path d="M 0.574219 -11.402344 L 0.574219 -1.144531 C 0.574219 -0.121094 0.214844 0 0.214844 0 L 1.976562 0 C 1.976562 0 1.625 -0.113281 1.625 -1.132812 L 1.617188 -13.148438 L 0.214844 -12.605469 C 0.214844 -12.605469 0.574219 -12.425781 0.574219 -11.402344 Z M 0.574219 -11.402344 "/></g></g></g><g fill="#f5f5f3" fill-opacity="1"><g transform="translate(25.203481, 42.496463)"><g><path d="M 7.246094 -3.824219 C 7.246094 -2.097656 6.09375 -0.488281 4.023438 -0.488281 C 2.363281 -0.488281 1.304688 -1.324219 1.304688 -2.980469 C 1.304688 -6.28125 6.832031 -5.636719 7.191406 -6.625 C 6.460938 -5.621094 0.214844 -6.796875 0.214844 -2.65625 C 0.214844 -1.71875 0.980469 0 3.796875 0 C 5.730469 0 6.738281 -1.144531 7.246094 -2.292969 L 7.246094 -1.144531 C 7.246094 -0.101562 7.90625 0 8.644531 0 C 8.644531 0 8.292969 -0.113281 8.292969 -1.132812 L 8.292969 -6.160156 C 8.300781 -7.734375 7.855469 -9.203125 4.96875 -9.203125 C 3.394531 -9.203125 1.8125 -8.652344 1.03125 -7.011719 L 1.949219 -6.402344 C 2.304688 -7.914062 3.464844 -8.921875 4.957031 -8.921875 C 7.003906 -8.921875 7.246094 -7.546875 7.246094 -6.152344 Z M 7.246094 -3.824219 "/></g></g></g><g fill="#f5f5f3" fill-opacity="1"><g transform="translate(34.492272, 42.496463)"><g><path d="M 0.214844 -8.652344 C 0.214844 -8.652344 0.574219 -8.480469 0.574219 -7.449219 L 0.574219 -1.144531 C 0.574219 -0.121094 0.214844 0 0.214844 0 C 1.144531 0 1.625 -0.179688 1.625 -1.015625 L 1.625 -9.195312 Z M 6.273438 0 L 8.035156 0 C 8.035156 0 7.675781 -0.113281 7.675781 -1.132812 L 7.675781 -6.804688 C 7.675781 -9.609375 2.242188 -10.46875 1.683594 -6.625 C 2.535156 -9.625 6.625 -9.597656 6.625 -6.609375 C 6.625 -1.144531 6.625 -1.144531 6.625 -1.144531 C 6.625 -0.121094 6.273438 0 6.273438 0 Z M 6.273438 0 "/></g></g></g><g fill="#f5f5f3" fill-opacity="1"><g transform="translate(43.170984, 42.496463)"><g><path d="M 7.554688 -3.652344 C 7.554688 -2.003906 6.601562 -0.359375 4.476562 -0.359375 C 3.015625 -0.359375 1.304688 -1.503906 1.304688 -4.597656 C 1.304688 -10.492188 6.839844 -9.695312 7.484375 -6.625 C 7.3125 -10.707031 0.214844 -10.578125 0.214844 -4.625 C 0.214844 -1.8125 1.984375 0 4.5625 0 C 5.894531 0 6.96875 -0.566406 7.546875 -1.445312 L 7.546875 -1.015625 C 7.546875 -0.179688 8.027344 0 8.953125 0 C 8.953125 0 8.59375 -0.121094 8.59375 -1.144531 L 8.59375 -11.402344 C 8.59375 -12.425781 8.953125 -12.605469 8.953125 -12.605469 L 7.554688 -13.148438 Z M 7.554688 -3.652344 "/></g></g></g><g fill="#f5f5f3" fill-opacity="1"><g transform="translate(52.76911, 42.496463)"><g/></g></g><g fill="#f5f5f3" fill-opacity="1"><g transform="translate(57.49519, 42.496463)"><g><path d="M 10.175781 -1.90625 L 9.480469 -2.371094 C 8.6875 -1.015625 7.742188 -0.402344 5.636719 -0.402344 C 3.25 -0.402344 1.304688 -2.207031 1.304688 -6.179688 C 1.304688 -10.140625 3.824219 -11.988281 5.636719 -11.988281 C 7.835938 -11.988281 8.722656 -11.414062 9.839844 -9.589844 L 10.425781 -11.171875 C 9.460938 -10.914062 8.988281 -12.324219 6 -12.324219 C 2.613281 -12.324219 0.214844 -10.0625 0.214844 -6.152344 C 0.214844 -2.25 2.648438 -0.0078125 5.636719 -0.0078125 C 7.632812 -0.0078125 9.179688 -0.59375 10.175781 -1.90625 Z M 10.175781 -1.90625 "/></g></g></g><g fill="#f5f5f3" fill-opacity="1"><g transform="translate(68.562665, 42.496463)"><g><path d="M 4.632812 -9.195312 C 2.191406 -9.195312 0.214844 -7.125 0.214844 -4.589844 C 0.214844 -2.054688 2.191406 0.0078125 4.632812 0.0078125 C 7.074219 0.0078125 9.050781 -2.054688 9.050781 -4.589844 C 9.050781 -7.125 7.074219 -9.195312 4.632812 -9.195312 Z M 4.632812 -0.386719 C 2.792969 -0.386719 1.296875 -2.328125 1.296875 -4.632812 C 1.296875 -6.933594 2.792969 -8.800781 4.632812 -8.800781 C 6.472656 -8.800781 7.964844 -6.933594 7.964844 -4.632812 C 7.964844 -2.328125 6.472656 -0.386719 4.632812 -0.386719 Z M 4.632812 -0.386719 "/></g></g></g><g fill="#f5f5f3" fill-opacity="1"><g transform="translate(78.255311, 42.496463)"><g><path d="M 1.625 -9.195312 L 0.222656 -8.652344 C 0.222656 -8.652344 0.574219 -8.480469 0.574219 -7.449219 L 0.574219 -1.144531 C 0.574219 -0.121094 0.214844 0 0.214844 0 C 1.144531 0 1.625 -0.179688 1.625 -1.015625 Z M 10.304688 0 L 12.066406 0 C 12.066406 0 11.714844 -0.113281 11.714844 -1.132812 L 11.703125 -6.933594 C 11.703125 -9.617188 6.882812 -10.363281 6.730469 -6.625 C 7.269531 -9.289062 10.664062 -9.523438 10.664062 -7.019531 C 10.664062 -1.546875 10.664062 -1.144531 10.664062 -1.144531 C 10.664062 -0.121094 10.304688 0 10.304688 0 Z M 5.257812 0 L 7.019531 0 C 7.019531 0 6.660156 -0.113281 6.660156 -1.132812 L 6.660156 -6.933594 C 6.660156 -9.617188 1.832031 -10.363281 1.683594 -6.625 C 2.226562 -9.289062 5.621094 -9.523438 5.621094 -7.019531 C 5.621094 -1.546875 5.621094 -1.144531 5.621094 -1.144531 C 5.621094 -0.121094 5.257812 0 5.257812 0 Z M 5.257812 0 "/></g></g></g><g fill="#f5f5f3" fill-opacity="1"><g transform="translate(90.963988, 42.496463)"><g><path d="M 1.625 -9.195312 L 0.222656 -8.652344 C 0.222656 -8.652344 0.574219 -8.480469 0.574219 -7.449219 L 0.574219 -1.144531 C 0.574219 -0.121094 0.214844 0 0.214844 0 C 1.144531 0 1.625 -0.179688 1.625 -1.015625 Z M 10.304688 0 L 12.066406 0 C 12.066406 0 11.714844 -0.113281 11.714844 -1.132812 L 11.703125 -6.933594 C 11.703125 -9.617188 6.882812 -10.363281 6.730469 -6.625 C 7.269531 -9.289062 10.664062 -9.523438 10.664062 -7.019531 C 10.664062 -1.546875 10.664062 -1.144531 10.664062 -1.144531 C 10.664062 -0.121094 10.304688 0 10.304688 0 Z M 5.257812 0 L 7.019531 0 C 7.019531 0 6.660156 -0.113281 6.660156 -1.132812 L 6.660156 -6.933594 C 6.660156 -9.617188 1.832031 -10.363281 1.683594 -6.625 C 2.226562 -9.289062 5.621094 -9.523438 5.621094 -7.019531 C 5.621094 -1.546875 5.621094 -1.144531 5.621094 -1.144531 C 5.621094 -0.121094 5.257812 0 5.257812 0 Z M 5.257812 0 "/></g></g></g><g fill="#f5f5f3" fill-opacity="1"><g transform="translate(103.672665, 42.496463)"><g><path d="M 1.296875 -4.804688 L 1.296875 -4.914062 L 8.921875 -4.914062 C 8.921875 -8.007812 7.148438 -9.195312 4.71875 -9.195312 C 2.277344 -9.195312 0.214844 -7.296875 0.214844 -4.761719 C 0.214844 -2.226562 2.097656 0.0078125 5.042969 0.0078125 C 6.96875 0.0078125 8.5 -1.28125 8.644531 -2.648438 C 8.050781 0.136719 1.359375 0.722656 1.296875 -4.804688 Z M 4.71875 -8.800781 C 6.960938 -8.800781 7.941406 -7.234375 7.941406 -5.183594 L 1.304688 -5.183594 C 1.453125 -7.289062 2.972656 -8.800781 4.71875 -8.800781 Z M 4.71875 -8.800781 "/></g></g></g><g fill="#f5f5f3" fill-opacity="1"><g transform="translate(113.236421, 42.496463)"><g><path d="M 1.667969 -6.625 C 2.164062 -9.082031 5.5 -9.546875 6.179688 -7.097656 L 7.105469 -7.320312 C 6.445312 -9.910156 1.804688 -9.933594 1.667969 -6.625 Z M 0.214844 0 L 1.976562 0 C 1.976562 0 1.625 -0.113281 1.625 -1.132812 L 1.617188 -9.203125 L 0.214844 -8.664062 C 0.214844 -8.664062 0.574219 -8.492188 0.574219 -7.46875 L 0.574219 -1.144531 C 0.574219 -0.121094 0.214844 0 0.214844 0 Z M 0.214844 0 "/></g></g></g><g fill="#f5f5f3" fill-opacity="1"><g transform="translate(120.987121, 42.496463)"><g><path d="M 7.992188 -2.414062 C 7.175781 0.402344 1.296875 0.636719 1.296875 -4.632812 C 1.296875 -6.933594 2.792969 -8.800781 4.632812 -8.800781 C 5.902344 -8.800781 7.117188 -8.15625 7.570312 -6.609375 L 8.257812 -7.492188 C 7.699219 -8.464844 6.195312 -9.1875 4.632812 -9.1875 C 2.199219 -9.1875 0.214844 -7.125 0.214844 -4.589844 C 0.214844 -1.703125 2.199219 0.0078125 4.632812 0.0078125 C 5.921875 0.0078125 7.46875 -0.550781 7.992188 -2.414062 Z M 7.992188 -2.414062 "/></g></g></g><g fill="#f5f5f3" fill-opacity="1"><g transform="translate(129.889241, 42.496463)"><g><path d="M 1.296875 -4.804688 L 1.296875 -4.914062 L 8.921875 -4.914062 C 8.921875 -8.007812 7.148438 -9.195312 4.71875 -9.195312 C 2.277344 -9.195312 0.214844 -7.296875 0.214844 -4.761719 C 0.214844 -2.226562 2.097656 0.0078125 5.042969 0.0078125 C 6.96875 0.0078125 8.5 -1.28125 8.644531 -2.648438 C 8.050781 0.136719 1.359375 0.722656 1.296875 -4.804688 Z M 4.71875 -8.800781 C 6.960938 -8.800781 7.941406 -7.234375 7.941406 -5.183594 L 1.304688 -5.183594 C 1.453125 -7.289062 2.972656 -8.800781 4.71875 -8.800781 Z M 4.71875 -8.800781 "/></g></g></g></svg>