<svg xmlns="http://www.w3.org/2000/svg" xmlns:xlink="http://www.w3.org/1999/xlink" width="200" zoomAndPan="magnify" viewBox="0 0 150 74.999997" height="100" preserveAspectRatio="xMidYMid meet" version="1.0"><defs><g/></defs><g fill="#ffffff" fill-opacity="1"><g transform="translate(75.258344, 42.281574)"><g/></g></g><g fill="#ffffff" fill-opacity="1"><g transform="translate(8.851371, 53.743017)"><g><path d="M 0.214844 -0.0078125 L 1.976562 -0.0078125 C 1.976562 -0.0078125 1.625 -0.179688 1.625 -1.203125 L 1.625 -11.191406 C 1.625 -12.214844 1.976562 -12.328125 1.976562 -12.328125 L 0.214844 -12.328125 C 0.214844 -12.328125 0.574219 -12.207031 0.574219 -11.183594 L 0.574219 -1.203125 C 0.574219 -0.179688 0.214844 -0.0078125 0.214844 -0.0078125 Z M 0.214844 -0.0078125 "/></g></g></g><g fill="#ffffff" fill-opacity="1"><g transform="translate(11.748264, 53.743017)"><g><path d="M 7.152344 -2.433594 C 7.152344 -1.738281 6.722656 -0.222656 4.332031 -0.222656 C 1.761719 -0.222656 1.089844 -2.011719 0.945312 -2.414062 L 0.214844 -1.53125 C 0.480469 -1.175781 1.316406 0 4.316406 0 C 7.324219 0 8.519531 -1.101562 8.519531 -2.613281 C 8.519531 -5.800781 1.78125 -4.324219 1.78125 -6.886719 C 1.78125 -8.242188 2.972656 -8.949219 4.160156 -8.949219 C 7.296875 -8.949219 7.339844 -7.015625 7.339844 -7.015625 L 7.675781 -8.425781 C 7.675781 -8.425781 6.457031 -9.1875 4.289062 -9.1875 C 0.832031 -9.1875 0.6875 -7.238281 0.6875 -6.875 C 0.6875 -3.371094 7.152344 -4.984375 7.152344 -2.433594 Z M 7.152344 -2.433594 "/></g></g></g><g fill="#ffffff" fill-opacity="1"><g transform="translate(21.186823, 53.743017)"><g><path d="M 0.574219 -11.40625 L 0.574219 -1.144531 C 0.574219 -0.121094 0.214844 0 0.214844 0 L 1.976562 0 C 1.976562 0 1.625 -0.113281 1.625 -1.132812 L 1.617188 -13.152344 L 0.214844 -12.609375 C 0.214844 -12.609375 0.574219 -12.429688 0.574219 -11.40625 Z M 0.574219 -11.40625 "/></g></g></g><g fill="#ffffff" fill-opacity="1"><g transform="translate(24.083715, 53.743017)"><g><path d="M 7.246094 -3.824219 C 7.246094 -2.097656 6.09375 -0.488281 4.023438 -0.488281 C 2.363281 -0.488281 1.304688 -1.324219 1.304688 -2.984375 C 1.304688 -6.285156 6.832031 -5.640625 7.195312 -6.628906 C 6.464844 -5.621094 0.214844 -6.800781 0.214844 -2.65625 C 0.214844 -1.71875 0.980469 0 3.800781 0 C 5.734375 0 6.738281 -1.144531 7.246094 -2.296875 L 7.246094 -1.144531 C 7.246094 -0.101562 7.910156 0 8.648438 0 C 8.648438 0 8.296875 -0.113281 8.296875 -1.132812 L 8.296875 -6.164062 C 8.304688 -7.738281 7.855469 -9.207031 4.96875 -9.207031 C 3.394531 -9.207031 1.8125 -8.65625 1.03125 -7.015625 L 1.953125 -6.402344 C 2.304688 -7.917969 3.464844 -8.921875 4.960938 -8.921875 C 7.003906 -8.921875 7.246094 -7.546875 7.246094 -6.15625 Z M 7.246094 -3.824219 "/></g></g></g><g fill="#ffffff" fill-opacity="1"><g transform="translate(33.651221, 53.743017)"><g><path d="M 0.214844 -8.65625 C 0.214844 -8.65625 0.574219 -8.484375 0.574219 -7.453125 L 0.574219 -1.144531 C 0.574219 -0.121094 0.214844 0 0.214844 0 C 1.144531 0 1.625 -0.179688 1.625 -1.015625 L 1.625 -9.199219 Z M 6.273438 0 L 8.039062 0 C 8.039062 0 7.675781 -0.113281 7.675781 -1.132812 L 7.675781 -6.808594 C 7.675781 -9.609375 2.242188 -10.46875 1.683594 -6.628906 C 2.535156 -9.628906 6.628906 -9.601562 6.628906 -6.609375 C 6.628906 -1.144531 6.628906 -1.144531 6.628906 -1.144531 C 6.628906 -0.121094 6.273438 0 6.273438 0 Z M 6.273438 0 "/></g></g></g><g fill="#ffffff" fill-opacity="1"><g transform="translate(42.6084, 53.743017)"><g><path d="M 7.554688 -3.652344 C 7.554688 -2.003906 6.601562 -0.359375 4.480469 -0.359375 C 3.015625 -0.359375 1.304688 -1.503906 1.304688 -4.597656 C 1.304688 -10.496094 6.84375 -9.695312 7.488281 -6.628906 C 7.316406 -10.710938 0.214844 -10.582031 0.214844 -4.625 C 0.214844 -1.8125 1.984375 0 4.566406 0 C 5.898438 0 6.972656 -0.566406 7.546875 -1.445312 L 7.546875 -1.015625 C 7.546875 -0.179688 8.027344 0 8.957031 0 C 8.957031 0 8.597656 -0.121094 8.597656 -1.144531 L 8.597656 -11.40625 C 8.597656 -12.429688 8.957031 -12.609375 8.957031 -12.609375 L 7.554688 -13.152344 Z M 7.554688 -3.652344 "/></g></g></g><g fill="#ffffff" fill-opacity="1"><g transform="translate(52.485368, 53.743017)"><g/></g></g><g fill="#ffffff" fill-opacity="1"><g transform="translate(57.488324, 53.743017)"><g><path d="M 10.179688 -1.910156 L 9.480469 -2.371094 C 8.691406 -1.015625 7.746094 -0.402344 5.640625 -0.402344 C 3.25 -0.402344 1.304688 -2.210938 1.304688 -6.179688 C 1.304688 -10.144531 3.824219 -11.992188 5.640625 -11.992188 C 7.839844 -11.992188 8.726562 -11.414062 9.84375 -9.59375 L 10.425781 -11.175781 C 9.464844 -10.917969 8.992188 -12.328125 6 -12.328125 C 2.613281 -12.328125 0.214844 -10.066406 0.214844 -6.15625 C 0.214844 -2.253906 2.648438 -0.0078125 5.640625 -0.0078125 C 7.632812 -0.0078125 9.179688 -0.59375 10.179688 -1.910156 Z M 10.179688 -1.910156 "/></g></g></g><g fill="#ffffff" fill-opacity="1"><g transform="translate(68.835226, 53.743017)"><g><path d="M 4.632812 -9.199219 C 2.191406 -9.199219 0.214844 -7.125 0.214844 -4.589844 C 0.214844 -2.054688 2.191406 0.0078125 4.632812 0.0078125 C 7.074219 0.0078125 9.050781 -2.054688 9.050781 -4.589844 C 9.050781 -7.125 7.074219 -9.199219 4.632812 -9.199219 Z M 4.632812 -0.386719 C 2.792969 -0.386719 1.296875 -2.328125 1.296875 -4.632812 C 1.296875 -6.9375 2.792969 -8.800781 4.632812 -8.800781 C 6.472656 -8.800781 7.96875 -6.9375 7.96875 -4.632812 C 7.96875 -2.328125 6.472656 -0.386719 4.632812 -0.386719 Z M 4.632812 -0.386719 "/></g></g></g><g fill="#ffffff" fill-opacity="1"><g transform="translate(78.806746, 53.743017)"><g><path d="M 1.625 -9.199219 L 0.222656 -8.65625 C 0.222656 -8.65625 0.574219 -8.484375 0.574219 -7.453125 L 0.574219 -1.144531 C 0.574219 -0.121094 0.214844 0 0.214844 0 C 1.144531 0 1.625 -0.179688 1.625 -1.015625 Z M 10.308594 0 L 12.070312 0 C 12.070312 0 11.714844 -0.113281 11.714844 -1.132812 L 11.707031 -6.9375 C 11.707031 -9.617188 6.886719 -10.367188 6.730469 -6.628906 C 7.273438 -9.292969 10.667969 -9.523438 10.667969 -7.023438 C 10.667969 -1.546875 10.667969 -1.144531 10.667969 -1.144531 C 10.667969 -0.121094 10.308594 0 10.308594 0 Z M 5.261719 0 L 7.023438 0 C 7.023438 0 6.660156 -0.113281 6.660156 -1.132812 L 6.660156 -6.9375 C 6.660156 -9.617188 1.832031 -10.367188 1.683594 -6.628906 C 2.226562 -9.292969 5.621094 -9.523438 5.621094 -7.023438 C 5.621094 -1.546875 5.621094 -1.144531 5.621094 -1.144531 C 5.621094 -0.121094 5.261719 0 5.261719 0 Z M 5.261719 0 "/></g></g></g><g fill="#ffffff" fill-opacity="1"><g transform="translate(91.795511, 53.743017)"><g><path d="M 1.625 -9.199219 L 0.222656 -8.65625 C 0.222656 -8.65625 0.574219 -8.484375 0.574219 -7.453125 L 0.574219 -1.144531 C 0.574219 -0.121094 0.214844 0 0.214844 0 C 1.144531 0 1.625 -0.179688 1.625 -1.015625 Z M 10.308594 0 L 12.070312 0 C 12.070312 0 11.714844 -0.113281 11.714844 -1.132812 L 11.707031 -6.9375 C 11.707031 -9.617188 6.886719 -10.367188 6.730469 -6.628906 C 7.273438 -9.292969 10.667969 -9.523438 10.667969 -7.023438 C 10.667969 -1.546875 10.667969 -1.144531 10.667969 -1.144531 C 10.667969 -0.121094 10.308594 0 10.308594 0 Z M 5.261719 0 L 7.023438 0 C 7.023438 0 6.660156 -0.113281 6.660156 -1.132812 L 6.660156 -6.9375 C 6.660156 -9.617188 1.832031 -10.367188 1.683594 -6.628906 C 2.226562 -9.292969 5.621094 -9.523438 5.621094 -7.023438 C 5.621094 -1.546875 5.621094 -1.144531 5.621094 -1.144531 C 5.621094 -0.121094 5.261719 0 5.261719 0 Z M 5.261719 0 "/></g></g></g><g fill="#ffffff" fill-opacity="1"><g transform="translate(104.784281, 53.743017)"><g><path d="M 1.296875 -4.804688 L 1.296875 -4.917969 L 8.921875 -4.917969 C 8.921875 -8.011719 7.152344 -9.199219 4.71875 -9.199219 C 2.277344 -9.199219 0.214844 -7.296875 0.214844 -4.761719 C 0.214844 -2.226562 2.097656 0.0078125 5.046875 0.0078125 C 6.972656 0.0078125 8.5 -1.28125 8.648438 -2.648438 C 8.054688 0.136719 1.359375 0.722656 1.296875 -4.804688 Z M 4.71875 -8.800781 C 6.960938 -8.800781 7.941406 -7.238281 7.941406 -5.183594 L 1.304688 -5.183594 C 1.453125 -7.289062 2.972656 -8.800781 4.71875 -8.800781 Z M 4.71875 -8.800781 "/></g></g></g><g fill="#ffffff" fill-opacity="1"><g transform="translate(114.626865, 53.743017)"><g><path d="M 1.667969 -6.628906 C 2.167969 -9.085938 5.5 -9.550781 6.179688 -7.101562 L 7.109375 -7.324219 C 6.445312 -9.910156 1.804688 -9.9375 1.667969 -6.628906 Z M 0.214844 0 L 1.976562 0 C 1.976562 0 1.625 -0.113281 1.625 -1.132812 L 1.617188 -9.207031 L 0.214844 -8.664062 C 0.214844 -8.664062 0.574219 -8.492188 0.574219 -7.46875 L 0.574219 -1.144531 C 0.574219 -0.121094 0.214844 0 0.214844 0 Z M 0.214844 0 "/></g></g></g><g fill="#ffffff" fill-opacity="1"><g transform="translate(122.655666, 53.743017)"><g><path d="M 7.996094 -2.414062 C 7.175781 0.402344 1.296875 0.636719 1.296875 -4.632812 C 1.296875 -6.9375 2.792969 -8.800781 4.632812 -8.800781 C 5.90625 -8.800781 7.117188 -8.15625 7.574219 -6.609375 L 8.261719 -7.496094 C 7.703125 -8.46875 6.199219 -9.1875 4.632812 -9.1875 C 2.199219 -9.1875 0.214844 -7.125 0.214844 -4.589844 C 0.214844 -1.703125 2.199219 0.0078125 4.632812 0.0078125 C 5.921875 0.0078125 7.46875 -0.550781 7.996094 -2.414062 Z M 7.996094 -2.414062 "/></g></g></g><g fill="#ffffff" fill-opacity="1"><g transform="translate(131.836343, 53.743017)"><g><path d="M 1.296875 -4.804688 L 1.296875 -4.917969 L 8.921875 -4.917969 C 8.921875 -8.011719 7.152344 -9.199219 4.71875 -9.199219 C 2.277344 -9.199219 0.214844 -7.296875 0.214844 -4.761719 C 0.214844 -2.226562 2.097656 0.0078125 5.046875 0.0078125 C 6.972656 0.0078125 8.5 -1.28125 8.648438 -2.648438 C 8.054688 0.136719 1.359375 0.722656 1.296875 -4.804688 Z M 4.71875 -8.800781 C 6.960938 -8.800781 7.941406 -7.238281 7.941406 -5.183594 L 1.304688 -5.183594 C 1.453125 -7.289062 2.972656 -8.800781 4.71875 -8.800781 Z M 4.71875 -8.800781 "/></g></g></g></svg>