<svg xmlns="http://www.w3.org/2000/svg" xmlns:xlink="http://www.w3.org/1999/xlink" width="200" zoomAndPan="magnify" viewBox="0 0 150 74.999997" height="100" preserveAspectRatio="xMidYMid meet" version="1.0"><defs><g/></defs><g fill="#000000" fill-opacity="1"><g transform="translate(75.466175, 37.1012)"><g/></g></g><g fill="#ffffff" fill-opacity="1"><g transform="translate(13.19422, 40.899236)"><g><path d="M 0.191406 -0.0078125 L 1.746094 -0.0078125 C 1.746094 -0.0078125 1.4375 -0.160156 1.4375 -1.0625 L 1.4375 -9.890625 C 1.4375 -10.792969 1.746094 -10.894531 1.746094 -10.894531 L 0.191406 -10.894531 C 0.191406 -10.894531 0.507812 -10.785156 0.507812 -9.882812 L 0.507812 -1.0625 C 0.507812 -0.160156 0.191406 -0.0078125 0.191406 -0.0078125 Z M 0.191406 -0.0078125 "/></g></g></g><g fill="#ffffff" fill-opacity="1"><g transform="translate(16.23266, 40.899236)"><g><path d="M 6.320312 -2.148438 C 6.320312 -1.535156 5.941406 -0.199219 3.828125 -0.199219 C 1.558594 -0.199219 0.964844 -1.777344 0.835938 -2.132812 L 0.191406 -1.351562 C 0.425781 -1.039062 1.164062 0 3.8125 0 C 6.472656 0 7.527344 -0.972656 7.527344 -2.308594 C 7.527344 -5.128906 1.574219 -3.820312 1.574219 -6.085938 C 1.574219 -7.285156 2.628906 -7.90625 3.675781 -7.90625 C 6.449219 -7.90625 6.488281 -6.199219 6.488281 -6.199219 L 6.785156 -7.445312 C 6.785156 -7.445312 5.703125 -8.121094 3.789062 -8.121094 C 0.738281 -8.121094 0.609375 -6.394531 0.609375 -6.078125 C 0.609375 -2.976562 6.320312 -4.40625 6.320312 -2.148438 Z M 6.320312 -2.148438 "/></g></g></g><g fill="#ffffff" fill-opacity="1"><g transform="translate(25.05175, 40.899236)"><g><path d="M 0.507812 -10.078125 L 0.507812 -1.011719 C 0.507812 -0.105469 0.191406 0 0.191406 0 L 1.746094 0 C 1.746094 0 1.4375 -0.0976562 1.4375 -1.003906 L 1.429688 -11.621094 L 0.191406 -11.144531 C 0.191406 -11.144531 0.507812 -10.984375 0.507812 -10.078125 Z M 0.507812 -10.078125 "/></g></g></g><g fill="#ffffff" fill-opacity="1"><g transform="translate(28.09019, 40.899236)"><g><path d="M 6.402344 -3.378906 C 6.402344 -1.851562 5.386719 -0.433594 3.554688 -0.433594 C 2.089844 -0.433594 1.15625 -1.167969 1.15625 -2.636719 C 1.15625 -5.550781 6.039062 -4.984375 6.359375 -5.855469 C 5.710938 -4.96875 0.191406 -6.007812 0.191406 -2.347656 C 0.191406 -1.519531 0.867188 0 3.359375 0 C 5.066406 0 5.957031 -1.011719 6.402344 -2.027344 L 6.402344 -1.011719 C 6.402344 -0.0898438 6.988281 0 7.640625 0 C 7.640625 0 7.332031 -0.0976562 7.332031 -1.003906 L 7.332031 -5.445312 C 7.335938 -6.835938 6.941406 -8.136719 4.390625 -8.136719 C 3 -8.136719 1.601562 -7.648438 0.910156 -6.199219 L 1.722656 -5.660156 C 2.035156 -6.996094 3.0625 -7.882812 4.382812 -7.882812 C 6.191406 -7.882812 6.402344 -6.667969 6.402344 -5.4375 Z M 6.402344 -3.378906 "/></g></g></g><g fill="#ffffff" fill-opacity="1"><g transform="translate(37.023227, 40.899236)"><g><path d="M 0.191406 -7.648438 C 0.191406 -7.648438 0.507812 -7.496094 0.507812 -6.585938 L 0.507812 -1.011719 C 0.507812 -0.105469 0.191406 0 0.191406 0 C 1.011719 0 1.4375 -0.160156 1.4375 -0.894531 L 1.4375 -8.128906 Z M 5.546875 0 L 7.101562 0 C 7.101562 0 6.785156 -0.0976562 6.785156 -1.003906 L 6.785156 -6.015625 C 6.785156 -8.492188 1.984375 -9.253906 1.488281 -5.855469 C 2.242188 -8.507812 5.855469 -8.484375 5.855469 -5.839844 C 5.855469 -1.011719 5.855469 -1.011719 5.855469 -1.011719 C 5.855469 -0.105469 5.546875 0 5.546875 0 Z M 5.546875 0 "/></g></g></g><g fill="#ffffff" fill-opacity="1"><g transform="translate(45.41694, 40.899236)"><g><path d="M 6.675781 -3.226562 C 6.675781 -1.769531 5.832031 -0.320312 3.957031 -0.320312 C 2.667969 -0.320312 1.15625 -1.328125 1.15625 -4.0625 C 1.15625 -9.273438 6.046875 -8.570312 6.617188 -5.855469 C 6.464844 -9.464844 0.191406 -9.351562 0.191406 -4.085938 C 0.191406 -1.601562 1.753906 0 4.035156 0 C 5.210938 0 6.160156 -0.5 6.667969 -1.277344 L 6.667969 -0.894531 C 6.667969 -0.160156 7.09375 0 7.914062 0 C 7.914062 0 7.597656 -0.105469 7.597656 -1.011719 L 7.597656 -10.078125 C 7.597656 -10.984375 7.914062 -11.144531 7.914062 -11.144531 L 6.675781 -11.621094 Z M 6.675781 -3.226562 "/></g></g></g><g fill="#ffffff" fill-opacity="1"><g transform="translate(54.62344, 40.899236)"><g/></g></g><g fill="#ffffff" fill-opacity="1"><g transform="translate(59.522938, 40.899236)"><g><path d="M 8.992188 -1.6875 L 8.378906 -2.097656 C 7.679688 -0.894531 6.84375 -0.355469 4.984375 -0.355469 C 2.871094 -0.355469 1.15625 -1.953125 1.15625 -5.460938 C 1.15625 -8.964844 3.378906 -10.597656 4.984375 -10.597656 C 6.925781 -10.597656 7.710938 -10.085938 8.699219 -8.476562 L 9.214844 -9.875 C 8.363281 -9.648438 7.945312 -10.894531 5.300781 -10.894531 C 2.308594 -10.894531 0.191406 -8.894531 0.191406 -5.4375 C 0.191406 -1.988281 2.339844 -0.0078125 4.984375 -0.0078125 C 6.746094 -0.0078125 8.113281 -0.523438 8.992188 -1.6875 Z M 8.992188 -1.6875 "/></g></g></g><g fill="#ffffff" fill-opacity="1"><g transform="translate(70.028367, 40.899236)"><g><path d="M 4.09375 -8.128906 C 1.9375 -8.128906 0.191406 -6.296875 0.191406 -4.054688 C 0.191406 -1.816406 1.9375 0.0078125 4.09375 0.0078125 C 6.25 0.0078125 8 -1.816406 8 -4.054688 C 8 -6.296875 6.25 -8.128906 4.09375 -8.128906 Z M 4.09375 -0.34375 C 2.46875 -0.34375 1.148438 -2.058594 1.148438 -4.09375 C 1.148438 -6.128906 2.46875 -7.777344 4.09375 -7.777344 C 5.71875 -7.777344 7.042969 -6.128906 7.042969 -4.09375 C 7.042969 -2.058594 5.71875 -0.34375 4.09375 -0.34375 Z M 4.09375 -0.34375 "/></g></g></g><g fill="#ffffff" fill-opacity="1"><g transform="translate(79.318416, 40.899236)"><g><path d="M 1.4375 -8.128906 L 0.199219 -7.648438 C 0.199219 -7.648438 0.507812 -7.496094 0.507812 -6.585938 L 0.507812 -1.011719 C 0.507812 -0.105469 0.191406 0 0.191406 0 C 1.011719 0 1.4375 -0.160156 1.4375 -0.894531 Z M 9.109375 0 L 10.664062 0 C 10.664062 0 10.351562 -0.0976562 10.351562 -1.003906 L 10.347656 -6.128906 C 10.347656 -8.5 6.085938 -9.160156 5.949219 -5.855469 C 6.425781 -8.210938 9.425781 -8.417969 9.425781 -6.207031 C 9.425781 -1.367188 9.425781 -1.011719 9.425781 -1.011719 C 9.425781 -0.105469 9.109375 0 9.109375 0 Z M 4.648438 0 L 6.207031 0 C 6.207031 0 5.886719 -0.0976562 5.886719 -1.003906 L 5.886719 -6.128906 C 5.886719 -8.5 1.617188 -9.160156 1.488281 -5.855469 C 1.96875 -8.210938 4.96875 -8.417969 4.96875 -6.207031 C 4.96875 -1.367188 4.96875 -1.011719 4.96875 -1.011719 C 4.96875 -0.105469 4.648438 0 4.648438 0 Z M 4.648438 0 "/></g></g></g><g fill="#ffffff" fill-opacity="1"><g transform="translate(91.27471, 40.899236)"><g><path d="M 1.4375 -8.128906 L 0.199219 -7.648438 C 0.199219 -7.648438 0.507812 -7.496094 0.507812 -6.585938 L 0.507812 -1.011719 C 0.507812 -0.105469 0.191406 0 0.191406 0 C 1.011719 0 1.4375 -0.160156 1.4375 -0.894531 Z M 9.109375 0 L 10.664062 0 C 10.664062 0 10.351562 -0.0976562 10.351562 -1.003906 L 10.347656 -6.128906 C 10.347656 -8.5 6.085938 -9.160156 5.949219 -5.855469 C 6.425781 -8.210938 9.425781 -8.417969 9.425781 -6.207031 C 9.425781 -1.367188 9.425781 -1.011719 9.425781 -1.011719 C 9.425781 -0.105469 9.109375 0 9.109375 0 Z M 4.648438 0 L 6.207031 0 C 6.207031 0 5.886719 -0.0976562 5.886719 -1.003906 L 5.886719 -6.128906 C 5.886719 -8.5 1.617188 -9.160156 1.488281 -5.855469 C 1.96875 -8.210938 4.96875 -8.417969 4.96875 -6.207031 C 4.96875 -1.367188 4.96875 -1.011719 4.96875 -1.011719 C 4.96875 -0.105469 4.648438 0 4.648438 0 Z M 4.648438 0 "/></g></g></g><g fill="#ffffff" fill-opacity="1"><g transform="translate(103.231003, 40.899236)"><g><path d="M 1.148438 -4.246094 L 1.148438 -4.34375 L 7.882812 -4.34375 C 7.882812 -7.078125 6.320312 -8.128906 4.171875 -8.128906 C 2.011719 -8.128906 0.191406 -6.449219 0.191406 -4.207031 C 0.191406 -1.96875 1.851562 0.0078125 4.457031 0.0078125 C 6.160156 0.0078125 7.511719 -1.132812 7.640625 -2.339844 C 7.117188 0.121094 1.199219 0.636719 1.148438 -4.246094 Z M 4.171875 -7.777344 C 6.152344 -7.777344 7.019531 -6.394531 7.019531 -4.582031 L 1.15625 -4.582031 C 1.285156 -6.441406 2.628906 -7.777344 4.171875 -7.777344 Z M 4.171875 -7.777344 "/></g></g></g><g fill="#ffffff" fill-opacity="1"><g transform="translate(112.407116, 40.899236)"><g><path d="M 1.472656 -5.855469 C 1.914062 -8.027344 4.863281 -8.4375 5.460938 -6.273438 L 6.28125 -6.472656 C 5.695312 -8.757812 1.59375 -8.78125 1.472656 -5.855469 Z M 0.191406 0 L 1.746094 0 C 1.746094 0 1.4375 -0.0976562 1.4375 -1.003906 L 1.429688 -8.136719 L 0.191406 -7.65625 C 0.191406 -7.65625 0.507812 -7.503906 0.507812 -6.601562 L 0.507812 -1.011719 C 0.507812 -0.105469 0.191406 0 0.191406 0 Z M 0.191406 0 "/></g></g></g><g fill="#ffffff" fill-opacity="1"><g transform="translate(119.98045, 40.899236)"><g><path d="M 7.0625 -2.132812 C 6.34375 0.355469 1.148438 0.5625 1.148438 -4.09375 C 1.148438 -6.128906 2.46875 -7.777344 4.09375 -7.777344 C 5.21875 -7.777344 6.289062 -7.207031 6.691406 -5.839844 L 7.300781 -6.625 C 6.804688 -7.480469 5.476562 -8.121094 4.09375 -8.121094 C 1.945312 -8.121094 0.191406 -6.296875 0.191406 -4.054688 C 0.191406 -1.503906 1.945312 0.0078125 4.09375 0.0078125 C 5.234375 0.0078125 6.601562 -0.484375 7.0625 -2.132812 Z M 7.0625 -2.132812 "/></g></g></g><g fill="#ffffff" fill-opacity="1"><g transform="translate(128.571658, 40.899236)"><g><path d="M 1.148438 -4.246094 L 1.148438 -4.34375 L 7.882812 -4.34375 C 7.882812 -7.078125 6.320312 -8.128906 4.171875 -8.128906 C 2.011719 -8.128906 0.191406 -6.449219 0.191406 -4.207031 C 0.191406 -1.96875 1.851562 0.0078125 4.457031 0.0078125 C 6.160156 0.0078125 7.511719 -1.132812 7.640625 -2.339844 C 7.117188 0.121094 1.199219 0.636719 1.148438 -4.246094 Z M 4.171875 -7.777344 C 6.152344 -7.777344 7.019531 -6.394531 7.019531 -4.582031 L 1.15625 -4.582031 C 1.285156 -6.441406 2.628906 -7.777344 4.171875 -7.777344 Z M 4.171875 -7.777344 "/></g></g></g></svg>